<svg xmlns="http://www.w3.org/2000/svg" xmlns:xlink="http://www.w3.org/1999/xlink" width="500" zoomAndPan="magnify" viewBox="0 0 375 225" height="300" preserveAspectRatio="xMidYMid meet" version="1.0"><defs><clipPath id="id1"><path d="M 22.5 3.601562 L 357.75 3.601562 L 357.75 224.851562 L 22.5 224.851562 Z M 22.5 3.601562 " clip-rule="nonzero"/></clipPath></defs><g clip-path="url(#id1)"><path fill="black" d="M 351.089844 224.828125 L 317.386719 224.828125 C 315.425781 224.828125 313.664062 224.042969 312.488281 222.28125 L 189.832031 44.375 L 66.976562 222.28125 C 66 224.042969 64.039062 224.828125 62.078125 224.828125 L 28.769531 224.828125 C 26.613281 224.828125 24.65625 223.652344 23.480469 221.496094 C 22.5 219.539062 22.695312 217.1875 23.871094 215.617188 L 168.277344 5.972656 C 169.453125 4.40625 171.21875 3.621094 173.175781 3.621094 L 206.878906 3.621094 C 208.835938 3.621094 210.796875 4.40625 211.777344 5.972656 L 356.378906 215.617188 C 357.75 217.382812 357.75 219.539062 356.574219 221.496094 C 355.398438 223.652344 353.242188 224.828125 351.089844 224.828125 Z M 351.089844 224.828125 " fill-opacity="1" fill-rule="evenodd"/></g></svg>