<svg width="40" height="40" viewBox="0 0 40 40" fill="none" xmlns="http://www.w3.org/2000/svg">
<path d="M37.7711 1L22.3689 12.4395L25.2171 5.69033L37.7711 1Z" fill="#E2761B" stroke="#E2761B" stroke-width="0.154796" stroke-linecap="round" stroke-linejoin="round"/>
<path d="M2.21411 1L17.4925 12.5478L14.7836 5.69033L2.21411 1Z" fill="#E4761B" stroke="#E4761B" stroke-width="0.154796" stroke-linecap="round" stroke-linejoin="round"/>
<path d="M32.2288 27.5161L28.1267 33.8008L36.9037 36.2157L39.4268 27.6554L32.2288 27.5161Z" fill="#E4761B" stroke="#E4761B" stroke-width="0.154796" stroke-linecap="round" stroke-linejoin="round"/>
<path d="M0.588623 27.6554L3.09632 36.2157L11.8733 33.8008L7.77118 27.5161L0.588623 27.6554Z" fill="#E4761B" stroke="#E4761B" stroke-width="0.154796" stroke-linecap="round" stroke-linejoin="round"/>
<path d="M11.3779 16.8977L8.93213 20.5973L17.6472 20.9843L17.3376 11.6191L11.3779 16.8977Z" fill="#E4761B" stroke="#E4761B" stroke-width="0.154796" stroke-linecap="round" stroke-linejoin="round"/>
<path d="M28.6072 16.8977L22.5701 11.5107L22.3689 20.9843L31.0685 20.5973L28.6072 16.8977Z" fill="#E4761B" stroke="#E4761B" stroke-width="0.154796" stroke-linecap="round" stroke-linejoin="round"/>
<path d="M11.873 33.8013L17.1052 31.2471L12.5851 27.7178L11.873 33.8013Z" fill="#E4761B" stroke="#E4761B" stroke-width="0.154796" stroke-linecap="round" stroke-linejoin="round"/>
<path d="M22.8794 31.2471L28.127 33.8013L27.3995 27.7178L22.8794 31.2471Z" fill="#E4761B" stroke="#E4761B" stroke-width="0.154796" stroke-linecap="round" stroke-linejoin="round"/>
<path d="M28.1272 33.8012L22.8796 31.2471L23.2976 34.6681L23.2512 36.1077L28.1272 33.8012Z" fill="#D7C1B3" stroke="#D7C1B3" stroke-width="0.154796" stroke-linecap="round" stroke-linejoin="round"/>
<path d="M11.8733 33.8012L16.7494 36.1077L16.7184 34.6681L17.1054 31.2471L11.8733 33.8012Z" fill="#D7C1B3" stroke="#D7C1B3" stroke-width="0.154796" stroke-linecap="round" stroke-linejoin="round"/>
<path d="M16.8267 25.4581L12.4614 24.1733L15.5419 22.7646L16.8267 25.4581Z" fill="#233447" stroke="#233447" stroke-width="0.154796" stroke-linecap="round" stroke-linejoin="round"/>
<path d="M23.1582 25.4581L24.443 22.7646L27.5389 24.1733L23.1582 25.4581Z" fill="#233447" stroke="#233447" stroke-width="0.154796" stroke-linecap="round" stroke-linejoin="round"/>
<path d="M11.8736 33.8008L12.6166 27.5161L7.77148 27.6554L11.8736 33.8008Z" fill="#CD6116" stroke="#CD6116" stroke-width="0.154796" stroke-linecap="round" stroke-linejoin="round"/>
<path d="M27.3845 27.5161L28.1275 33.8008L32.2297 27.6554L27.3845 27.5161Z" fill="#CD6116" stroke="#CD6116" stroke-width="0.154796" stroke-linecap="round" stroke-linejoin="round"/>
<path d="M31.0685 20.5972L22.3689 20.9842L23.1738 25.4578L24.4586 22.7643L27.5546 24.173L31.0685 20.5972Z" fill="#CD6116" stroke="#CD6116" stroke-width="0.154796" stroke-linecap="round" stroke-linejoin="round"/>
<path d="M12.4622 24.173L15.5581 22.7643L16.8275 25.4578L17.6479 20.9842L8.93286 20.5972L12.4622 24.173Z" fill="#CD6116" stroke="#CD6116" stroke-width="0.154796" stroke-linecap="round" stroke-linejoin="round"/>
<path d="M8.93237 20.5972L12.5856 27.7178L12.4617 24.173L8.93237 20.5972Z" fill="#E4751F" stroke="#E4751F" stroke-width="0.154796" stroke-linecap="round" stroke-linejoin="round"/>
<path d="M27.5545 24.173L27.3997 27.7178L31.0683 20.5972L27.5545 24.173Z" fill="#E4751F" stroke="#E4751F" stroke-width="0.154796" stroke-linecap="round" stroke-linejoin="round"/>
<path d="M17.6471 20.9844L16.8267 25.458L17.8483 30.7365L18.0805 23.7862L17.6471 20.9844Z" fill="#E4751F" stroke="#E4751F" stroke-width="0.154796" stroke-linecap="round" stroke-linejoin="round"/>
<path d="M22.3686 20.9844L21.9507 23.7707L22.1364 30.7365L23.1736 25.458L22.3686 20.9844Z" fill="#E4751F" stroke="#E4751F" stroke-width="0.154796" stroke-linecap="round" stroke-linejoin="round"/>
<path d="M23.1736 25.4582L22.1365 30.7367L22.8795 31.2475L27.3996 27.7182L27.5543 24.1733L23.1736 25.4582Z" fill="#F6851B" stroke="#F6851B" stroke-width="0.154796" stroke-linecap="round" stroke-linejoin="round"/>
<path d="M12.4614 24.1733L12.5853 27.7182L17.1053 31.2475L17.8483 30.7367L16.8267 25.4582L12.4614 24.1733Z" fill="#F6851B" stroke="#F6851B" stroke-width="0.154796" stroke-linecap="round" stroke-linejoin="round"/>
<path d="M23.2508 36.1077L23.2973 34.6681L22.9103 34.3276H17.0745L16.7184 34.6681L16.7494 36.1077L11.8733 33.8013L13.5761 35.1944L17.028 37.5938H22.9567L26.4242 35.1944L28.1269 33.8013L23.2508 36.1077Z" fill="#C0AD9E" stroke="#C0AD9E" stroke-width="0.154796" stroke-linecap="round" stroke-linejoin="round"/>
<path d="M22.8792 31.2476L22.1361 30.7368H17.8483L17.1053 31.2476L16.7183 34.6686L17.0743 34.3281H22.9101L23.2971 34.6686L22.8792 31.2476Z" fill="#161616" stroke="#161616" stroke-width="0.154796" stroke-linecap="round" stroke-linejoin="round"/>
<path d="M38.421 13.1825L39.7367 6.86678L37.7708 1L22.8794 12.0525L28.6069 16.8976L36.7027 19.266L38.4984 17.1762L37.7244 16.619L38.9627 15.4889L38.003 14.7459L39.2414 13.8017L38.421 13.1825Z" fill="#763D16" stroke="#763D16" stroke-width="0.154796" stroke-linecap="round" stroke-linejoin="round"/>
<path d="M0.263672 6.86678L1.57944 13.1825L0.743541 13.8017L1.98191 14.7459L1.03765 15.4889L2.27603 16.619L1.50204 17.1762L3.2822 19.266L11.3781 16.8976L17.1055 12.0525L2.21411 1L0.263672 6.86678Z" fill="#763D16" stroke="#763D16" stroke-width="0.154796" stroke-linecap="round" stroke-linejoin="round"/>
<path d="M36.7027 19.2663L28.6068 16.8979L31.0681 20.5976L27.3994 27.7182L32.2291 27.6563H39.4271L36.7027 19.2663Z" fill="#F6851B" stroke="#F6851B" stroke-width="0.154796" stroke-linecap="round" stroke-linejoin="round"/>
<path d="M11.3782 16.8979L3.28232 19.2663L0.588867 27.6563H7.77142L12.5856 27.7182L8.93239 20.5976L11.3782 16.8979Z" fill="#F6851B" stroke="#F6851B" stroke-width="0.154796" stroke-linecap="round" stroke-linejoin="round"/>
<path d="M22.369 20.9843L22.8798 12.0526L25.2327 5.69043H14.7839L17.1059 12.0526L17.6477 20.9843L17.8334 23.8016L17.8489 30.7365H22.1368L22.1677 23.8016L22.369 20.9843Z" fill="#F6851B" stroke="#F6851B" stroke-width="0.154796" stroke-linecap="round" stroke-linejoin="round"/>
</svg>
