<svg width="40" height="40" viewBox="0 0 40 40" fill="none" xmlns="http://www.w3.org/2000/svg">
<path fill-rule="evenodd" clip-rule="evenodd" d="M20 37.5C29.665 37.5 37.5 29.665 37.5 20C37.5 10.335 29.665 2.5 20 2.5C10.335 2.5 2.5 10.335 2.5 20C2.5 29.665 10.335 37.5 20 37.5ZM19.8202 30.9367C18.5802 30.9048 17.5848 29.8896 17.5848 28.642C17.5848 27.3742 18.6125 26.3465 19.8803 26.3465C21.1481 26.3465 22.1758 27.3742 22.1758 28.642C22.1758 29.8956 21.1708 30.9145 19.9225 30.9371C19.9082 30.9374 19.8938 30.9375 19.8794 30.9375C19.8596 30.9375 19.8399 30.9372 19.8202 30.9367ZM19.7578 23.4375C19.0675 23.4375 18.5078 22.8779 18.5078 22.1875V11.25C18.5078 10.5596 19.0675 10 19.7578 10C20.4482 10 21.0078 10.5596 21.0078 11.25V22.1875C21.0078 22.8779 20.4482 23.4375 19.7578 23.4375Z" fill="#F77272"/>
</svg>
